<?xml version="1.0" encoding="utf-8"?>
<!-- Generator: Adobe Illustrator 18.0.0, SVG Export Plug-In . SVG Version: 6.00 Build 0)  -->
<!DOCTYPE svg PUBLIC "-//W3C//DTD SVG 1.1//EN" "http://www.w3.org/Graphics/SVG/1.1/DTD/svg11.dtd">
<svg version="1.1" id="Layer_1" xmlns="http://www.w3.org/2000/svg" xmlns:xlink="http://www.w3.org/1999/xlink" x="0px" y="0px"
	 viewBox="0 0 256 256" enable-background="new 0 0 256 256" xml:space="preserve">
<g id="Layer_1_1_" opacity="0.5">
	<path d="M128,0C57.3,0,0,57.3,0,128s57.3,128,128,128s128-57.3,128-128S198.7,0,128,0z M128.1,142.8l-12.7,11l-25.7,42.9l-8-4.8
		L94,171.2V157c0,0-37-4.9-40-26.7v-27.6c0,0,0,14.6,39,25.4v-15l23.8,20.2l16.4-27.3c-16.9-0.6-37.5,1.4-59.9,9.2
		c0,0-24.6-10.7-5.4-21.9c13.7-8,46-17.3,80.3-12.3l22.2-37l8,4.8l-20.4,34c10.6,2.4,21.2,6.3,31.3,12.2c0,0,16.5,9.8-9.4,20.1
		c0,0-13.8-6.3-36.2-8.5L124,139.3L128.1,142.8z M162,158v-30c0,0,26-3.5,39-23.2V131C201,131,205.6,145.1,162,158z"/>
	<path fill="#FFFFFF" d="M162,158v-30c0,0,26-3.5,39-23.2V131C201,131,205.6,145.1,162,158z"/>
	<path fill="#FFFFFF" d="M179.9,115.1c0,0-13.8-6.3-36.2-8.5L124,139.3l4.1,3.5l-12.7,11l-25.7,42.9l-8-4.8L94,171.2V157
		c0,0-37-4.9-40-26.7v-27.6c0,0,0,14.6,39,25.4v-15l23.8,20.2l16.4-27.3c-16.9-0.6-37.5,1.4-59.9,9.2c0,0-24.6-10.7-5.4-21.9
		c13.7-8,46-17.3,80.3-12.3l22.2-37l8,4.8l-20.4,34c10.6,2.4,21.2,6.3,31.3,12.2C189.3,95,205.8,104.8,179.9,115.1z"/>
</g>
</svg>
