<?xml version="1.0" encoding="utf-8"?>
<!-- Generator: Adobe Illustrator 18.0.0, SVG Export Plug-In . SVG Version: 6.00 Build 0)  -->
<!DOCTYPE svg PUBLIC "-//W3C//DTD SVG 1.1//EN" "http://www.w3.org/Graphics/SVG/1.1/DTD/svg11.dtd">
<svg version="1.1" id="Layer_1" xmlns="http://www.w3.org/2000/svg" xmlns:xlink="http://www.w3.org/1999/xlink" x="0px" y="0px"
	 viewBox="0 0 256 256" enable-background="new 0 0 256 256" xml:space="preserve">
<g id="Layer_1_1_" opacity="0.5">
	<path d="M128,0C57.3,0,0,57.3,0,128s57.3,128,128,128s128-57.3,128-128S198.7,0,128,0z M67.9,93.2c19.2-11.2,75-25,121.4,1.8
		c0,0,16.5,9.8-9.4,20.1c0,0-46.4-21-106.7,0C73.3,115.1,48.7,104.4,67.9,93.2z M94,172.2V157c0,0-37-4.9-40-26.7v-27.6
		c0,0,0,14.6,39,25.4v-15l35.1,29.8L94,172.2z M162,158v-30c0,0,26-3.5,39-23.2V131C201,131,205.6,145.1,162,158z"/>
	<path fill="#FFFFFF" d="M162,158v-30c0,0,26-3.5,39-23.2V131C201,131,205.6,145.1,162,158z"/>
	<path fill="#FFFFFF" d="M179.9,115.1c0,0-46.4-21-106.7,0c0.1,0-24.5-10.7-5.3-21.9c19.2-11.2,75-25,121.4,1.8
		C189.3,95,205.8,104.8,179.9,115.1z"/>
	<path fill="#FFFFFF" d="M94,172.2V157c0,0-37-4.9-40-26.7v-27.6c0,0,0,14.6,39,25.4v-15l35.1,29.8L94,172.2z"/>
</g>
</svg>
