<?xml version="1.0" encoding="utf-8"?>
<!-- Generator: Adobe Illustrator 18.0.0, SVG Export Plug-In . SVG Version: 6.00 Build 0)  -->
<!DOCTYPE svg PUBLIC "-//W3C//DTD SVG 1.1//EN" "http://www.w3.org/Graphics/SVG/1.1/DTD/svg11.dtd">
<svg version="1.1" id="Layer_1" xmlns="http://www.w3.org/2000/svg" xmlns:xlink="http://www.w3.org/1999/xlink" x="0px" y="0px"
	 viewBox="0 0 256 256" enable-background="new 0 0 256 256" xml:space="preserve">
<g id="Layer_1_1_">
	<g>
		<path fill="#00C2A8" d="M139.9,53.1h-23.5c1.1-1.4,2.5-2.5,3.9-3.4c2.3-1.4,5-2.1,7.8-2.1c2.8,0,5.7,0.9,7.8,2.1
			c1.1,0.7,1.9,1.4,2.8,2.3C139.1,52.2,139.5,52.7,139.9,53.1z"/>
		<path fill="#00C2A8" d="M143,61.7h-30.3c0-1.4,0.4-2.8,0.9-4.2h28.5C142.7,58.7,143,60.2,143,61.7z"/>
		<rect x="112.8" y="66" fill="#00C2A8" width="30.3" height="4.8"/>
		<rect x="112.8" y="75.2" fill="#00C2A8" width="30.3" height="3.9"/>
		<path fill="#00C2A8" d="M117,99.3h21.8c-1.9,2.1-4.6,3.5-7.4,4.2c-1.1,0.2-2.3,0.4-3.5,0.4c-1.2,0-2.3-0.2-3.5-0.4
			c-2.8-0.7-5.3-2.1-7.3-4.1C117.2,99.3,117.2,99.3,117,99.3z"/>
		<path fill="#00C2A8" d="M142.9,91.5c-0.2,1.2-0.5,2.3-1.1,3.4H114c-0.5-1.1-0.9-2.3-1.1-3.4H142.9z"/>
		<rect x="112.8" y="83.5" fill="#00C2A8" width="30.3" height="3.5"/>
		<g>
			<path opacity="0.5" fill="#FFFFFF" enable-background="new    " d="M137.6,38.7c8,3.4,13.6,10.6,13.6,19.1v36.1
				c0,8.5-5.7,15.7-13.6,19.1v19.5h78.2V67.2c0-37-31-66.9-69.2-66.9h-9V38.7z"/>
			<path opacity="0.5" fill="#FFFFFF" enable-background="new    " d="M40.2,138.2v50.6c0,37,31,66.9,69.2,66.9h37.2
				c38.2,0,69.2-29.9,69.2-66.9v-50.6H40.2z"/>
		</g>
	</g>
	<path opacity="0.5" fill="#FFFFFF" enable-background="new    " d="M118.4,132.5V113c-8-3.4-13.6-10.6-13.6-19.1V57.8
		c0-8.5,5.7-15.7,13.6-19.1V0.3h-9c-38.2,0-69.2,29.9-69.2,66.9v65.3L118.4,132.5L118.4,132.5z"/>
</g>
<g id="Layer_3">
	<polygon fill="#FFFFFF" points="108.5,36.6 147.5,36.6 128,18 	"/>
	<polygon fill="#FFFFFF" points="147.5,115.9 108.5,115.9 128,134.3 	"/>
</g>
</svg>
