<?xml version="1.0" encoding="utf-8"?>
<!-- Generator: Adobe Illustrator 18.0.0, SVG Export Plug-In . SVG Version: 6.00 Build 0)  -->
<!DOCTYPE svg PUBLIC "-//W3C//DTD SVG 1.1//EN" "http://www.w3.org/Graphics/SVG/1.1/DTD/svg11.dtd">
<svg version="1.1" xmlns="http://www.w3.org/2000/svg" xmlns:xlink="http://www.w3.org/1999/xlink" x="0px" y="0px"
	 viewBox="0 0 256 256" enable-background="new 0 0 256 256" xml:space="preserve">
<g id="Layer_3">
	<path fill="#FFFFFF" d="M108.5,48.5c0,0,2,2.5,11,11c-11.3,11.8-28.9,39.1-29.5,40c16.5-19.5,42-31,42-31l9,12.5l12.5-37.5
		L108.5,48.5z M133.5,68c-5.3,0-9.5-4.3-9.5-9.5s4.3-9.5,9.5-9.5s9.5,4.3,9.5,9.5S138.8,68,133.5,68z"/>
	<path fill="#FFFFFF" d="M72.7,145.5l14,7.9l-13,9c0.8-1.4,1.3-3.1,1.3-4.8c0-5.3-4.3-9.5-9.5-9.5s-9.5,4.3-9.5,9.5s4.3,9.5,9.5,9.5
		c0.5,0,1.1,0,1.6-0.1l-12.9,8.9l-7.7-44.6c0,0,3,1.2,13.6,7.5c8.2-14.2,29.6-38.7,30.2-39.4C76.2,120.5,72.7,145.5,72.7,145.5z"/>
</g>
<g id="Layer_2">
	<path fill="#FFFFFF" d="M162,214c14.5-1.5,26.5-12,26.5-12s13.5-9.5,14.5-19c-2.5-5.5-4-7-7-14s-15.5-42-16-46.5s-5-8-5-8
		s0.5-12.5-7.5-12.5c-1-5.5-5-19-17-10c0,0-2.5-15-6.5-19c0,0-6-15.5-6.5-18S126,43,128,79.5c0,0,1,17.5,3,25c0,0-1,8.5-3.5,11.5
		s-2,42-21.5,37s-43.5-10.5-46.5,3.5c0,0-5,6.5,26.5,15c0,0,25,12,38,22.5c0,0,11,8.5,23.5,10S162,214,162,214z"/>
</g>
</svg>
