<?xml version="1.0" encoding="utf-8"?>
<!-- Generator: Adobe Illustrator 18.0.0, SVG Export Plug-In . SVG Version: 6.00 Build 0)  -->
<!DOCTYPE svg PUBLIC "-//W3C//DTD SVG 1.1//EN" "http://www.w3.org/Graphics/SVG/1.1/DTD/svg11.dtd">
<svg version="1.1" id="Layer_1" xmlns="http://www.w3.org/2000/svg" xmlns:xlink="http://www.w3.org/1999/xlink" x="0px" y="0px"
	 viewBox="0 0 256 256" enable-background="new 0 0 256 256" xml:space="preserve">
<g id="Layer_2" opacity="0.5">
	<path d="M128,0C57.3,0,0,57.3,0,128s57.3,128,128,128s128-57.3,128-128S198.7,0,128,0z M128,218.1c-56.3,0-78.8-51.3-78.8-51.3
		l36.4-17.5c0,0,12.3,28.9,42.4,28.9s53.6-20.2,53.6-50.2s-25-50.2-49.6-50.2S96,93.2,96,93.2l21,21.5L33.4,128l11-86.2
		c0,0,7.9,7.9,23.3,22.4C88.2,38.7,128,37,128,37c57.8,0,94.4,41.2,94.4,91S184.3,218.1,128,218.1z"/>
	<path fill="#FFFFFF" d="M222.4,128c0,49.8-38.1,90.1-94.4,90.1s-78.8-51.3-78.8-51.3l36.4-17.5c0,0,12.3,28.9,42.4,28.9
		s53.6-20.2,53.6-50.2s-25-50.2-49.6-50.2S96,93.2,96,93.2l21,21.5L33.4,128l11-86.2c0,0,7.9,7.9,23.3,22.4C88.2,38.7,128,37,128,37
		C185.8,37,222.4,78.2,222.4,128z"/>
</g>
</svg>
